<svg xmlns="http://www.w3.org/2000/svg" width="141" height="20" fill="none" viewBox="0 0 141 20"> <path fill="#B95" d="M80.175 5.142s5.32 5.011 9.395 5.638c4.074.626 6.647-3.86 5.327-4.695-1.721-1.095-3.132 1.252-3.442.936-.113-.113.694-.474.761-1.636.023-.395-.338-.897-.914-1.021-2.16-.474-2.9 1.71-4.853 2.037-1.879.316-6.263-1.253-6.263-1.253l-.011-.006ZM81.111 20c-.299-.722-.462-1.292-.75-1.772-1.298-2.144-1.31-2.133-.452-4.52-.27-.073-.541-.113-.784-.22-1.016-.434-1.794-1.185-1.75-2.42.142-3.793-1.924-5.965-4.626-7.72-.39-.254-.785-.508-1.174-.762.04-.101.073-.209.113-.31.812.299 1.647.53 2.426.914 3.849 1.885 6.97 4.627 8.425 9.085.813 2.488.525 4.943-.863 7.166-.125.198-.339.339-.56.553l-.005.006Z"/> <path fill="#B95" d="M75.412 5.131c1.715-.237 3.019 1.038 4.283 2.06 1.343 1.156 2.737 2.341 4.283 3.34a23.183 23.183 0 0 0 4.932 2.472c3.493 1.213 7.2 1.738 10.89 1.473 5.497-.604 10.451-3.409 15.146-6.033 4.622-2.516 9.046-5.71 14.197-6.794 2.506-.35 5.158-.48 7.449.655.175.096.356.192.53.293l.474.356.119.09c.158.152.361.373.519.525 1.106 1.326 1.36 3.154.993 4.83-.53 2.477-3.25 3.747-5.614 3.713-.813-.005-1.676-.175-2.235-.604a.473.473 0 0 0-.677.074c-.474.722.987 1.19 1.45 1.337 2.342.587 4.971-.005 6.76-1.67 1.479-1.371 1.891-3.516 1.654-5.462-.345-2.833-2.686-4.836-5.372-5.423-2.066-.508-4.216-.412-6.264-.141-1.885.293-3.617.97-5.276 1.71-8.013 3.656-15.117 9.733-24.005 10.924-3.43.248-6.963-.214-10.23-1.287a22.07 22.07 0 0 1-4.69-2.2c-2.296-1.355-4.198-3.33-6.562-4.678-.864-.469-1.941-.717-2.929-.485a.467.467 0 0 0-.361.558.47.47 0 0 0 .547.367h-.011Z"/> <path fill="#B95" d="M97.679 14.002c2.974 2.471 7.24 1.84 10.597.57 3.38-1.247 6.269-3.431 9.3-5.31 3.109-1.874 10.473-6.75 13.904-6.315 1.591.288 2.962 1.54 2.719 3.262a.316.316 0 0 0 .271.35.317.317 0 0 0 .345-.249 3.513 3.513 0 0 0-.006-1.472c-.305-1.507-1.687-2.489-3.104-2.856-.987-.237-1.935-.067-2.872.153-4.345 1.196-8.216 3.583-12.042 5.874-2.991 1.823-5.801 3.927-9.034 5.26-2.347.947-4.875 1.641-7.392 1.167a7.51 7.51 0 0 1-2.32-.937.311.311 0 0 0-.36.508l-.006-.005Z"/> <path fill="#B95" d="M90.924 3.246c6.992-1.924 13.633-1.862 19.558 2.737 3.443 2.635 7.189 4.971 11.416 6.123 4.006 1.145 8.713.598 9.937-4.046.096-.378-.446-.559-.592-.198-1.919 5.034-7.624 3.674-11.512 1.896-2.962-1.32-5.665-3.126-8.233-5.107l-1.196-.857-1.264-.762C106.036 1.328 102.56.549 99.123.696c-.97.067-1.935.158-2.889.333-1.901.35-3.747.908-5.507 1.625-.339.147-.198.688.197.592ZM60.441 5.142s-5.32 5.011-9.395 5.638c-4.069.626-6.647-3.86-5.321-4.695 1.72-1.095 3.132 1.252 3.442.936.113-.113-.694-.474-.762-1.636-.022-.395.339-.897.92-1.021 2.161-.474 2.9 1.71 4.853 2.037 1.879.316 6.263-1.253 6.263-1.253v-.006ZM59.51 20c.3-.722.463-1.292.75-1.772 1.299-2.144 1.31-2.133.452-4.52.271-.073.542-.113.785-.22 1.015-.434 1.794-1.185 1.749-2.42-.141-3.793 1.924-5.965 4.627-7.72l1.174-.762c-.04-.101-.073-.209-.113-.31-.813.299-1.648.53-2.427.914-3.848 1.885-6.968 4.627-8.424 9.085-.813 2.488-.525 4.943.863 7.166.124.198.339.339.559.553l.005.006Z"/> <path fill="#B95" d="M65.39 4.211c-1.986-.463-3.775.931-5.225 2.049-1.422 1.106-2.782 2.206-4.266 3.114-3.318 2.083-7.16 3.172-11.055 3.46-3.03.338-6.004-.119-8.876-1.163-6.704-2.393-12.504-6.71-18.988-9.74-1.665-.739-3.391-1.416-5.276-1.71-3.6-.485-8.16-.411-10.541 2.822C-.045 4.651-.225 6.79.226 8.686c.446 1.964 2.139 3.453 3.99 4.04 1.822.565 4.018.717 5.637-.49.48-.407-.124-1.112-.604-.723-1.901 1.242-5.174.485-6.732-1.078C1.338 9.301 1.095 7.524 1.31 5.977A4.834 4.834 0 0 1 2.8 3.156l.101-.107.119-.09c.378-.31.84-.576 1.27-.79 2.256-.965 4.762-.864 7.177-.514 5.152 1.078 9.582 4.272 14.197 6.788 4.69 2.624 9.65 5.423 15.146 6.033 3.69.265 7.398-.26 10.89-1.473a23.479 23.479 0 0 0 4.932-2.477c2.303-1.422 4.12-3.465 6.343-4.887.7-.406 1.445-.643 2.246-.514a.47.47 0 0 0 .164-.925l.005.011Z"/> <path fill="#B95" d="M42.56 13.505c-2.975 1.862-6.637 1.01-9.7-.237-3.234-1.332-6.044-3.442-9.035-5.26-3.042-1.867-6.128-3.656-9.446-5.016-2.122-.812-4.673-1.777-6.811-.462-1.326.728-2.11 2.28-1.767 3.78.034.17.204.277.367.243a.317.317 0 0 0 .243-.378c-.152-1.168.519-2.348 1.597-2.838 1.089-.593 2.32-.486 3.487-.113 2.477.761 4.774 2.042 7.042 3.312 2.653 1.524 5.27 3.194 7.838 4.87 3.38 2.229 7.206 4.181 11.343 4.294.93 0 1.867-.107 2.77-.367a7.399 7.399 0 0 0 2.455-1.326.313.313 0 0 0 .045-.44.322.322 0 0 0-.418-.062h-.01Z"/> <path fill="#B95" d="M49.895 2.654c-6.529-2.686-13.537-2.878-19.58 1.14-.69.48-1.671 1.202-2.314 1.704-2.23 1.648-4.588 3.126-7.11 4.26-3.014 1.287-6.947 2.652-9.813.514-.756-.627-1.32-1.456-1.693-2.41a.307.307 0 0 0-.407-.175.31.31 0 0 0-.186.373c.373 1.433 1.281 2.838 2.596 3.617 5.282 2.94 13.289-1.682 17.617-4.836a219.31 219.31 0 0 1 2.24-1.66c3.787-2.561 8.442-3.565 12.979-3.001 1.834.192 3.662.592 5.48 1.066a.313.313 0 0 0 .383-.225.318.318 0 0 0-.186-.373l-.006.006Zm26.86 11.263a1.24 1.24 0 0 1-.384-.13c.525 1.225.886 2.765.802 4.046-.198 1.569-1.338 1.383-1.942.807-.615-.536-1.196-1.18-1.636-2.127-.835-1.885-1.4-4.03-1.88-6.253-.208-1.224-.783-2.669-1.472-3.583-.683.914-1.258 2.359-1.473 3.583a42.551 42.551 0 0 1-.807 3.245c-.468 1.54-.987 3.239-1.834 4.232-.733.875-1.946 2.167-2.691.632-.367-1.213.056-3.109.683-4.57-.548.36-1.106-.164-.689-1.253.39-.79.824-1.484 1.304-2.054a.615.615 0 0 1-.412-.18c-.367-.407-.265-1.389-.057-1.891.982-2.207 3.488-3.51 5.011-3.11.034.006.057.034.08.08.276.101.518.327.744.575.045.05.085.107.13.164.288-.339.587-.587.891-.711.012-.051.04-.09.08-.107 1.523-.412 4.028.908 5.01 3.109.198.474.3 1.303.023 1.794a.611.611 0 0 1-.502.265c.36.452.705.96 1.032 1.507.153.26.31.547.395.92.13.525-.101 1.038-.406 1.01Z"/></svg>