<svg xmlns="http://www.w3.org/2000/svg" width="20" height="20" fill="none" viewBox="0 0 20 20"> <path fill="#B95" fill-rule="evenodd" d="M20 20H0l1.5-1.5h17V2L20 0v20ZM16 4v12H4l-1 1h14V3l-1 1Z" clip-rule="evenodd"/> <path fill="#B95" fill-rule="evenodd" d="M8.247 14.255c-.016.398.938 1.525 2.097.77 1.158-.755.663-2.513-.346-3.302-.383-.273-.907-.283-1.203-.082-.294.205-.284.86-.129.931-.702.005-1.067-.6-.7-1.198.483-.786 2.459-.409 3.29.862.83 1.266 1.32 3.492-1.085 4.582-1.838.527-3.161-1.19-1.93-2.558l.006-.005Zm6.023-6.024c.399-.015 1.526.944.773 2.095-.757 1.16-2.516.665-3.308-.341-.27-.385-.285-.91-.08-1.203.204-.294.859-.283.932-.131 0-.697-.603-1.064-1.2-.697-.79.48-.41 2.458.862 3.29 1.271.83 3.492 1.32 4.585-1.083.524-1.835-1.295-3.198-2.564-1.93Z" clip-rule="evenodd"/> <path fill="#B95" fill-rule="evenodd" d="M16.587 16.944c.325.026.375-.045.385-.396 0 0 .037-2.112-1.266-3.415-.66-.66-2.623-1.13-3.46-1.547-.87-.435-.977-.872-1.184-1.274a38.5 38.5 0 0 1-.61-1.286.687.687 0 0 0-.41-.325l-1.45-.333c-.157-.037-.25.057-.214.215l.372 1.478a.682.682 0 0 0 .333.4s.998.48 1.334.633c.543.249.632.008 1.18 1.122.427.862.938 2.857 1.622 3.535 1.004 1.004 3.368 1.188 3.368 1.188v.005Z" clip-rule="evenodd"/> <path fill="#B95" fill-rule="evenodd" d="M9.874 12.276c-.136-.136-.115-.378.042-.535l1.838-1.837c.157-.158.4-.176.537-.04l.207.207c.136.137.118.38-.04.538l-1.834 1.835c-.16.16-.404.178-.54.041l-.204-.204-.006-.005Z" clip-rule="evenodd"/></svg>